<?xml version="1.0" encoding="utf-8"?>
<!-- Svg Vector Icons : http://www.onlinewebfonts.com/icon -->
<!DOCTYPE svg PUBLIC "-//W3C//DTD SVG 1.1//EN" "http://www.w3.org/Graphics/SVG/1.1/DTD/svg11.dtd">
<svg version="1.1" xmlns="http://www.w3.org/2000/svg" xmlns:xlink="http://www.w3.org/1999/xlink" x="0px" y="0px" viewBox="0 0 1000 1000" enable-background="new 0 0 1000 1000" xml:space="preserve">
<metadata> Svg Vector Icons : http://www.onlinewebfonts.com/icon </metadata>
<g><g transform="translate(0.000000,512.000000) scale(0.100000,-0.100000)"><path d="M999.6,120v-4900H5000h4000.4V120v4900H5000H999.6V120z M8694.1,120v-4593.7H5000H1305.9V120v4593.7H5000h3694.1V120z"/><path d="M5803.9,2818.8v-555.1h-564.6h-564.6v-411.5v-411.5h-482.3H3708L2961.5-479.1c-409.6-1054.7-811.6-2088.2-892-2295l-147.4-379h625.9H3174l149.3,417.3c84.2,227.8,164.6,447.9,179.9,486.2l26.8,72.7h750.3h748.4l185.7-482.4l183.8-484.2l633.6-5.7c348.3-1.9,633.5,0,633.5,5.7s-386.7,978.1-861.3,2162.9c-472.8,1184.8-861.3,2157.2-861.3,2162.9s191.4,7.7,426.8,5.7l424.9-5.7l5.7-558.9l3.8-560.8h526.4h526.4v564.6v564.6h564.6h564.6v535.9v535.9h-564.6h-564.6v555.1v555.1h-526.4h-526.4V2818.8z M6550.4,2512.6v-555.1H7115h566.6l-5.7-233.5l-5.7-235.4l-558.9-5.7l-560.8-3.8V923.9V368.8h-220.1h-220.1l-3.8,560.8l-5.7,558.9l-558.9,5.7l-560.8,3.8v229.7v229.7h564.6h564.6v555.1v555.1h220.1h220.1V2512.6z M5392.4-764.3c417.3-1045.1,777.1-1940.8,796.2-1992.5l36.4-90l-308.2,3.8l-308.2,5.7L5423-2358.7l-183.7,478.5h-964.7H3308l-172.3-478.5l-174.2-478.5l-294.8-5.7c-243.1-3.8-290.9,0-285.2,21.1c3.8,15.3,350.3,911.1,771.4,1992.5l765.6,1963.8h356h357.9L5392.4-764.3z"/><path d="M4178.9,499c-503.4-1380-702.5-1940.9-691-1948.5c30.6-19.1,1579.1-3.8,1575.3,15.3c-7.7,30.6-792.4,2136.1-798.2,2143.7C4261.2,711.4,4222.9,617.7,4178.9,499z M4452.6-659c97.6-260.3,174.2-480.4,170.3-488.1c-9.6-19.1-713.9-21.1-713.9-1.9c0,28.7,352.2,981.9,359.8,974.2C4272.7-180.5,4356.9-396.8,4452.6-659z"/></g></g>
</svg>